<svg id="Layer_1" data-name="Layer 1" xmlns="http://www.w3.org/2000/svg" viewBox="0 0 30 6.08"><defs><style>.cls-1{font-size:6.63px;font-family:MyriadPro-Regular, Myriad Pro;}.cls-2{letter-spacing:-0.01em;}.cls-3{letter-spacing:-0.01em;}.cls-4{letter-spacing:0em;}.cls-5{fill:#554c00;}.cls-6{fill:#ffeb7f;}</style></defs><title>logo</title><path d="M18.09,5.66,16.53,4,15,5.66V.75a.41.41,0,0,1,.37-.43h2.39c.18,0,.36.25.36.43V5.66Z"/><text class="cls-1" transform="translate(-0.09 5.17) rotate(0.68)"><tspan class="cls-2">P</tspan><tspan x="3.49" y="0">la</tspan><tspan class="cls-3" x="8.25" y="0">c</tspan><tspan class="cls-4" x="11.18" y="0">e</tspan></text><text class="cls-1" transform="translate(18.41 5.19) rotate(0.68)">oldr</text><rect class="cls-5" x="15.19" y="0.64" width="1.15" height="0.39" rx="0.02" ry="0.02"/><rect class="cls-6" x="16.72" y="0.64" width="1.15" height="0.39" rx="0.02" ry="0.02"/><rect class="cls-6" x="15.19" y="1.23" width="1.15" height="0.39" rx="0.02" ry="0.02"/><rect class="cls-5" x="16.72" y="1.23" width="1.15" height="0.39" rx="0.02" ry="0.02"/><rect class="cls-5" x="15.19" y="1.83" width="1.15" height="0.39" rx="0.02" ry="0.02"/><rect class="cls-6" x="16.72" y="1.82" width="1.15" height="0.39" rx="0.02" ry="0.02"/><rect class="cls-5" x="15.19" y="2.43" width="1.15" height="0.39" rx="0.02" ry="0.02"/><rect class="cls-6" x="16.72" y="2.42" width="1.15" height="0.39" rx="0.02" ry="0.02"/><rect class="cls-6" x="15.19" y="3.03" width="1.15" height="0.39" rx="0.02" ry="0.02"/><rect class="cls-5" x="16.72" y="3.02" width="1.15" height="0.39" rx="0.02" ry="0.02"/></svg>